HIERARCHY
ROOT Hips
{
	OFFSET 0.00000 0.00000 0.00000
	CHANNELS 6 Xposition Yposition Zposition Zrotation Yrotation Xrotation 
	JOINT LHipJoint
	{
		OFFSET 0 0 0
		CHANNELS 3 Zrotation Yrotation Xrotation
		JOINT LeftUpLeg
		{
			OFFSET 1.75344 -1.53157 0.77399
			CHANNELS 3 Zrotation Yrotation Xrotation
			JOINT LeftLeg
			{
				OFFSET 2.25415 -6.19323 0.00000
				CHANNELS 3 Zrotation Yrotation Xrotation
				JOINT LeftFoot
				{
					OFFSET 2.30342 -6.32861 0.00000
					CHANNELS 3 Zrotation Yrotation Xrotation
					JOINT LeftToeBase
					{
						OFFSET 0.10958 -0.30108 1.49206
						CHANNELS 3 Zrotation Yrotation Xrotation
						End Site
						{
							OFFSET 0.00000 -0.00000 0.77783
						}
					}
				}
			}
		}
	}
	JOINT RHipJoint
	{
		OFFSET 0 0 0
		CHANNELS 3 Zrotation Yrotation Xrotation
		JOINT RightUpLeg
		{
			OFFSET -1.81912 -1.53156 0.77399
			CHANNELS 3 Zrotation Yrotation Xrotation
			JOINT RightLeg
			{
				OFFSET -2.22882 -6.12365 0.00000
				CHANNELS 3 Zrotation Yrotation Xrotation
				JOINT RightFoot
				{
					OFFSET -2.21943 -6.09785 0.00000
					CHANNELS 3 Zrotation Yrotation Xrotation
					JOINT RightToeBase
					{
						OFFSET -0.18931 -0.52012 1.59379
						CHANNELS 3 Zrotation Yrotation Xrotation
						End Site
						{
							OFFSET -0.00000 -0.00000 0.84686
						}
					}
				}
			}
		}
	}
	JOINT LowerBack
	{
		OFFSET 0 0 0
		CHANNELS 3 Zrotation Yrotation Xrotation
		JOINT Spine
		{
			OFFSET -0.00200 1.66634 -0.14248
			CHANNELS 3 Zrotation Yrotation Xrotation
			JOINT Spine1
			{
				OFFSET -0.00875 1.64542 0.09514
				CHANNELS 3 Zrotation Yrotation Xrotation
				JOINT Neck
				{
					OFFSET 0 0 0
					CHANNELS 3 Zrotation Yrotation Xrotation
					JOINT Neck1
					{
						OFFSET 0.02257 1.59605 0.00839
						CHANNELS 3 Zrotation Yrotation Xrotation
						JOINT Head
						{
							OFFSET -0.10214 1.57530 -0.23335
							CHANNELS 3 Zrotation Yrotation Xrotation
							End Site
							{
								OFFSET -0.03588 1.60717 -0.08062
							}
						}
					}
				}
				JOINT LeftShoulder
				{
					OFFSET 0 0 0
					CHANNELS 3 Zrotation Yrotation Xrotation
					JOINT LeftArm
					{
						OFFSET 2.54983 1.10186 0.40078
						CHANNELS 3 Zrotation Yrotation Xrotation
						JOINT LeftForeArm
						{
							OFFSET 4.28840 -0.00000 0.00000
							CHANNELS 3 Zrotation Yrotation Xrotation
							JOINT LeftHand
							{
								OFFSET 3.06552 -0.00000 -0.00000
								CHANNELS 3 Zrotation Yrotation Xrotation
								JOINT LeftFingerBase
								{
									OFFSET 0 0 0
									CHANNELS 3 Zrotation Yrotation Xrotation
									JOINT LeftHandIndex1
									{
										OFFSET 0.75304 -0.00000 0.00000
										CHANNELS 3 Zrotation Yrotation Xrotation
										End Site
										{
											OFFSET 0.60712 -0.00000 0.00000
										}
									}
								}
								JOINT LThumb
								{
									OFFSET 0 0 0
									CHANNELS 3 Zrotation Yrotation Xrotation
									End Site
									{
										OFFSET 0.61639 -0.00000 0.61639
									}
								}
							}
						}
					}
				}
				JOINT RightShoulder
				{
					OFFSET 0 0 0
					CHANNELS 3 Zrotation Yrotation Xrotation
					JOINT RightArm
					{
						OFFSET -2.60909 1.35448 0.21802
						CHANNELS 3 Zrotation Yrotation Xrotation
						JOINT RightForeArm
						{
							OFFSET -4.52172 -0.00000 -0.00000
							CHANNELS 3 Zrotation Yrotation Xrotation
							JOINT RightHand
							{
								OFFSET -2.89140 -0.00000 0.00000
								CHANNELS 3 Zrotation Yrotation Xrotation
								JOINT RightFingerBase
								{
									OFFSET 0 0 0
									CHANNELS 3 Zrotation Yrotation Xrotation
									JOINT RightHandIndex1
									{
										OFFSET -0.68054 -0.00000 0.00000
										CHANNELS 3 Zrotation Yrotation Xrotation
										End Site
										{
											OFFSET -0.54867 -0.00000 0.00000
										}
									}
								}
								JOINT RThumb
								{
									OFFSET 0 0 0
									CHANNELS 3 Zrotation Yrotation Xrotation
									End Site
									{
										OFFSET -0.55705 -0.00000 0.55705
									}
								}
							}
						}
					}
				}
			}
		}
	}
}
MOTION
Frames: 15
Frame Time: .0083333
8.7081 15.5607 -1.8863 -176.7510 -3.4106 -172.8490 0.0000 0.0000 0.0000 -11.0144 -18.9535 -37.9307 2.8582 10.4620 30.4860 0.1532 9.7526 9.2006 0.0119 -0.7035 -1.9332 0.0000 0.0000 0.0000 19.7205 13.7513 -34.5175 -2.7842 -10.3372 30.0757 0.3475 -14.5097 5.5236 -0.0202 0.9169 -2.5203 3.2667 1.5499 29.1783 0.8271 2.3448 2.9971 -1.7729 0.5712 -12.6909 -7.3588 -3.9256 -8.4284 5.5235 -4.7939 4.5943 2.9034 -2.3138 3.3916 -0.0000 0.0000 0.0000 -40.4506 26.6731 -13.0008 89.8980 -60.0000 -59.9117 -0.0000 0.0000 -33.9168 25.9497 -54.2858 -21.5603 -7.1250 0.0000 -0.0000 -8.9597 -26.5972 12.1220 -0.0000 0.0000 0.0000 42.8718 -27.8114 23.0775 -48.4607 52.3555 -24.9501 0.0000 -0.0000 -25.2546 -7.4650 -43.7721 5.1795 7.1250 -0.0000 -0.0000 44.2014 -69.2707 -27.5355
8.7115 15.1652 -2.0497 -176.7680 -3.7051 -173.1880 0.0000 0.0000 0.0000 -11.9503 -17.6721 -39.7947 3.7851 11.8688 35.2694 0.0019 0.1121 0.7823 2.8401 -10.4316 -30.3861 0.0000 0.0000 0.0000 20.9964 11.3754 -36.6740 -3.8633 -11.9762 35.6478 0.1309 -8.2004 2.4698 -1.5760 7.9205 -22.4730 3.2697 1.4395 29.6774 0.7949 2.1735 3.1193 -1.7523 0.4738 -12.8127 -6.8065 -4.0039 -8.0378 5.3044 -4.9397 3.2208 2.7120 -2.3878 2.8227 -0.0000 -0.0000 0.0000 -44.7083 29.3054 -16.3685 85.8389 -59.9345 -56.3972 -0.0000 0.0000 -33.2161 26.3785 -54.9553 -22.0984 -7.1250 0.0000 -0.0000 -9.0324 -27.3246 12.2706 -0.0000 -0.0000 0.0000 47.2804 -29.4592 21.4169 -44.2789 50.4103 -21.6816 0.0000 -0.0000 -22.6501 -8.6627 -44.9063 6.1389 7.1250 -0.0000 -0.0000 45.4021 -70.4291 -29.4801
8.7137 14.8437 -2.1696 -176.7090 -4.0121 -173.5770 0.0000 0.0000 0.0000 -12.5552 -16.9282 -41.3734 4.8588 13.2230 40.2092 0.0463 -0.4856 -3.9180 3.3500 -11.2411 -33.0975 0.0000 0.0000 0.0000 21.6685 10.2827 -39.0410 -5.0151 -13.4008 40.8880 0.2529 -9.2849 -6.3205 -0.1981 2.8659 -7.9057 3.4277 1.2756 30.3886 0.7437 1.9824 2.8776 -1.7283 0.3610 -12.6097 -6.4092 -3.9806 -7.6263 5.1403 -4.9455 1.7346 2.5835 -2.4009 2.2229 0.0000 -0.0000 0.0000 -49.3824 31.6350 -19.8042 82.1299 -59.7647 -53.1897 -0.0000 0.0000 -33.3407 26.3233 -53.8983 -21.7882 -7.1250 0.0000 -0.0000 -8.6778 -26.3424 11.7177 0.0000 -0.0000 0.0000 51.8171 -30.6866 19.2507 -40.2399 48.2114 -18.6179 0.0000 -0.0000 -19.2463 -9.2438 -45.8680 6.6626 7.1250 -0.0000 -0.0000 47.0227 -71.2493 -31.4593
8.7141 14.5364 -2.2640 -176.4120 -4.0950 -173.8340 0.0000 0.0000 0.0000 -12.1210 -16.9459 -43.7102 6.0744 14.5000 45.2795 0.3459 -1.8736 -10.6159 1.3773 -7.4266 -20.9854 0.0000 0.0000 0.0000 22.2350 10.2829 -40.7943 -6.0557 -14.4821 45.2049 0.1228 -10.0260 -12.0431 -0.0011 -0.2177 0.5982 3.7460 1.1456 31.0493 0.7984 1.9169 2.8962 -1.8202 0.2935 -12.8660 -6.4163 -3.9871 -6.7979 5.2804 -4.9933 0.2488 2.6417 -2.4396 1.5899 0.0000 0.0000 0.0000 -54.1745 33.6904 -23.3702 77.2502 -59.3768 -48.9815 -0.0000 0.0000 -33.2069 26.3429 -54.1433 -21.8666 -7.1250 0.0000 -0.0000 -8.7562 -26.5727 11.8407 0.0000 0.0000 0.0000 56.1415 -31.6797 17.0593 -36.4530 45.8222 -15.8465 0.0000 -0.0000 -15.4230 -9.5999 -46.2082 6.9609 7.1250 -0.0000 -0.0000 47.5011 -71.5869 -32.1433
8.7147 14.2498 -2.3387 -175.8580 -3.8712 -173.7160 0.0000 0.0000 0.0000 -11.0300 -17.1383 -46.4413 7.3456 15.6162 50.1698 0.5280 -1.5721 -13.2741 2.4170 -9.6854 -27.9637 0.0000 0.0000 0.0000 22.7610 11.2733 -42.4954 -7.0752 -15.3949 49.1583 0.0566 -11.4591 -15.4804 -0.0397 1.2857 -3.5353 4.1953 1.1142 31.5993 0.8731 2.0568 2.7925 -2.0418 0.3176 -13.1954 -6.4135 -4.0222 -6.2476 5.4387 -5.0731 -0.9871 2.7038 -2.4943 1.1009 -0.0000 -0.0000 0.0000 -58.6698 35.2581 -26.2013 72.7791 -58.8492 -45.1439 -0.0000 0.0000 -34.6283 26.7561 -52.1639 -21.7115 -7.1250 0.0000 -0.0000 -7.9097 -24.8600 10.5723 -0.0000 -0.0000 0.0000 60.3151 -32.3592 14.8158 -32.9931 43.3248 -13.4174 0.0000 -0.0000 -11.6025 -9.9885 -46.2760 7.2535 7.1250 -0.0000 -0.0000 47.3077 -71.7655 -32.1645
8.7216 14.0661 -2.3880 -174.9360 -3.4494 -173.2500 0.0000 0.0000 0.0000 -9.1583 -17.2055 -49.9635 8.7241 16.6269 55.1311 0.6809 -2.2497 -14.9837 1.9629 -8.7884 -25.1357 0.0000 0.0000 0.0000 23.4154 13.0002 -44.4163 -8.1086 -16.1985 52.9529 -0.0136 -12.3767 -17.7805 -0.0669 1.6688 -4.5911 4.8572 1.1852 32.0014 1.0400 2.4283 2.6408 -2.3696 0.4374 -13.4919 -6.2946 -4.0073 -6.3060 5.4492 -5.0722 -1.9055 2.6895 -2.5084 0.8112 -0.0000 0.0000 0.0000 -62.8203 36.6482 -28.2429 68.2961 -58.1430 -41.3210 -0.0000 0.0000 -35.7560 27.5771 -51.0655 -22.1101 -7.1250 0.0000 -0.0000 -7.2040 -24.0692 9.5695 -0.0000 0.0000 0.0000 64.4672 -32.8476 12.4474 -30.0749 40.9575 -11.4587 0.0000 -0.0000 -8.1851 -10.3959 -46.3109 7.5568 7.1250 -0.0000 -0.0000 47.0173 -71.9309 -32.0976
8.7435 13.8667 -2.4569 -174.8450 -2.5555 -170.9870 0.0000 0.0000 0.0000 -7.5280 -17.3305 -55.3030 10.1026 17.4671 59.8307 0.7983 -2.2880 -16.2612 1.9542 -8.7700 -25.0784 0.0000 0.0000 0.0000 22.2879 16.2161 -48.8646 -9.3674 -17.0384 57.3522 -0.1280 -12.5694 -19.4211 -0.0000 -0.0002 0.0005 4.0230 1.7174 31.2268 1.1105 2.9164 2.2855 -2.0413 0.7401 -13.5921 -6.2280 -3.9421 -7.2946 5.4826 -4.9839 -2.7376 2.6806 -2.4815 0.7082 0.0000 0.0000 0.0000 -67.1812 37.2810 -30.2159 63.5841 -57.1917 -37.3388 -0.0000 0.0000 -36.6364 27.1720 -50.8252 -21.6992 -7.1250 0.0000 -0.0000 -7.2942 -23.7290 9.6689 0.0000 0.0000 0.0000 68.3054 -32.5997 10.2780 -27.5988 38.7442 -9.8715 0.0000 -0.0000 -5.4966 -11.0898 -46.5600 8.0999 7.1250 -0.0000 -0.0000 46.9979 -72.3325 -32.4578
8.7582 13.6127 -2.5355 -175.2030 -1.5919 -169.2430 0.0000 0.0000 0.0000 -6.7180 -17.2065 -59.8745 11.4679 18.1565 64.2918 0.9283 -2.0926 -17.6231 2.2203 -9.3105 -26.7717 0.0000 0.0000 0.0000 20.4325 19.1131 -53.0437 -10.7460 -17.8085 61.9539 -0.1398 -13.3119 -20.5103 -0.0004 0.1335 -0.3667 2.9233 2.2453 31.1822 1.0063 3.2663 2.0430 -1.7097 0.9683 -13.8989 -6.0969 -3.7810 -7.9005 5.3805 -4.8162 -4.0605 2.6288 -2.4354 0.3689 0.0000 0.0000 0.0000 -70.5487 36.5264 -31.8864 56.5875 -55.3298 -31.5177 -0.0000 0.0000 -36.4127 25.5370 -51.2204 -20.4279 -7.1250 0.0000 -0.0000 -8.1048 -23.6454 10.7523 0.0000 0.0000 0.0000 71.7751 -31.8495 8.4665 -25.2758 36.4845 -8.4533 0.0000 -0.0000 -3.4929 -11.3429 -47.4640 8.4081 7.1250 -0.0000 -0.0000 49.1376 -72.9704 -34.7346
8.7726 13.3874 -2.6222 -175.5520 -1.2077 -168.9560 0.0000 0.0000 0.0000 -6.5806 -17.0865 -62.0680 12.6609 18.6563 68.0690 1.1125 -2.3314 -19.2964 2.3343 -9.5303 -27.4686 0.0000 0.0000 0.0000 19.2567 20.6308 -55.2580 -12.0620 -18.4167 66.1851 -0.2313 -13.9580 -22.2624 -0.0052 0.4654 -1.2787 2.2850 2.4956 32.7581 0.9073 3.3270 2.0458 -1.5332 0.9801 -14.6072 -5.8741 -3.5584 -8.1019 5.3069 -4.6215 -5.7551 2.5851 -2.3957 -0.1606 0.0000 -0.0000 0.0000 -73.2257 35.4782 -32.6975 50.1205 -53.0440 -26.2704 -0.0000 0.0000 -35.1357 24.3634 -51.4064 -19.4911 -7.1250 0.0000 -0.0000 -8.6521 -23.5067 11.4794 0.0000 -0.0000 0.0000 74.9562 -30.6160 6.7056 -23.2792 34.3927 -7.2954 0.0000 -0.0000 -0.6708 -11.8686 -47.5536 8.8152 7.1250 -0.0000 -0.0000 48.9191 -73.2150 -34.7934
8.7826 13.2023 -2.6995 -175.6580 -1.1154 -169.2130 0.0000 0.0000 0.0000 -6.4320 -17.0453 -63.1385 13.6565 19.0065 71.1525 1.3382 -2.8911 -21.1113 2.2768 -9.4203 -27.1192 0.0000 0.0000 0.0000 18.9115 21.3570 -56.3802 -13.1564 -18.8379 69.6105 -0.3829 -14.3876 -24.1791 -0.0002 0.0907 -0.2493 2.1939 2.5946 34.7522 0.8566 3.3368 2.1639 -1.5793 0.9160 -15.3017 -5.8590 -3.3427 -8.4108 5.4926 -4.4180 -7.1559 2.6659 -2.3492 -0.5661 -0.0000 0.0000 0.0000 -75.2202 34.5105 -32.1538 44.6861 -50.6138 -21.9959 -0.0000 0.0000 -32.9632 23.5079 -51.6917 -18.8458 -7.1250 0.0000 -0.0000 -9.0948 -23.5523 12.0811 -0.0000 0.0000 0.0000 77.9376 -29.4173 5.5588 -21.7589 32.7034 -6.4551 0.0000 0.0000 1.8351 -12.1367 -48.4164 9.1381 7.1250 -0.0000 -0.0000 51.1477 -73.8055 -37.1534
8.7965 13.0558 -2.7570 -175.5730 -0.5522 -169.1820 0.0000 0.0000 0.0000 -6.2435 -16.2142 -64.3141 14.4469 19.2440 73.5646 1.5368 -3.6471 -22.5399 2.1891 -9.2494 -26.5787 0.0000 0.0000 0.0000 18.8068 22.4320 -57.3295 -13.9890 -19.1107 72.1708 -0.4781 -14.8391 -25.5079 -0.0000 -0.0209 0.0574 1.9584 2.9388 36.1002 0.8643 3.6068 2.3139 -1.5827 0.9911 -15.6726 -6.0645 -3.1902 -8.6486 5.7628 -4.2813 -8.4078 2.8170 -2.3324 -0.9289 0.0000 0.0000 0.0000 -77.1074 33.3355 -31.0642 40.0659 -48.1089 -18.4883 -0.0000 0.0000 -29.8519 23.2044 -51.7332 -18.6022 -7.1250 0.0000 -0.0000 -9.2333 -23.5139 12.2654 0.0000 0.0000 0.0000 80.4615 -28.1140 5.0572 -21.0498 31.8864 -6.0762 0.0000 0.0000 5.2632 -11.1481 -48.9516 8.4533 7.1250 -0.0000 -0.0000 53.5390 -73.7251 -39.0364
8.8226 12.9522 -2.8140 -175.5250 -0.8263 -169.2540 0.0000 0.0000 0.0000 -6.0073 -16.0508 -64.9736 15.0316 19.3976 75.3319 1.6847 -4.3554 -23.5285 2.1454 -9.1625 -26.3051 0.0000 0.0000 0.0000 18.8644 22.8244 -57.8194 -14.6208 -19.2916 74.0919 -0.5617 -15.4152 -26.8244 -0.0008 0.1865 -0.5125 1.9557 2.9551 37.4182 0.9687 3.5660 2.3869 -1.4507 0.9238 -15.9935 -6.3709 -2.9860 -8.3068 6.0939 -4.0944 -9.9773 3.0341 -2.2988 -1.5005 0.0000 -0.0000 0.0000 -78.5302 31.7178 -29.6696 35.5823 -45.2235 -15.2252 -0.0000 0.0000 -26.0763 23.5691 -51.2667 -18.7935 -7.1250 0.0000 -0.0000 -8.9412 -23.1697 11.8428 0.0000 -0.0000 0.0000 82.4389 -26.4783 5.3037 -20.1147 30.7802 -5.5899 0.0000 0.0000 8.7088 -14.7066 -46.8463 10.8396 7.1250 -0.0000 -0.0000 44.3599 -73.8291 -31.7542
8.8384 12.8539 -2.8555 -175.5230 -0.9315 -168.7690 0.0000 0.0000 0.0000 -5.6547 -15.9738 -66.2546 15.5261 19.5132 76.8163 1.7872 -4.8286 -24.1959 2.1447 -9.1612 -26.3008 0.0000 0.0000 0.0000 18.5072 23.3711 -59.0130 -15.1399 -19.4240 75.6576 -0.6185 -15.8096 -27.6949 -0.0025 0.3220 -0.8846 1.9179 2.9541 38.0584 0.9959 3.5345 2.3735 -1.3984 0.8916 -16.2611 -6.0027 -2.9128 -8.7383 5.6313 -4.1075 -10.5443 2.8125 -2.3487 -1.6305 -0.0000 -0.0000 0.0000 -79.0008 29.5421 -28.0720 30.7550 -41.5318 -11.9071 -0.0000 0.0000 -21.9999 23.4854 -50.9108 -18.6367 -7.1250 0.0000 -0.0000 -8.8702 -22.8140 11.7186 -0.0000 -0.0000 0.0000 83.8070 -24.7304 6.3024 -19.6971 30.2757 -5.3778 0.0000 0.0000 13.2722 -11.2841 -47.1534 8.3228 7.1250 -0.0000 -0.0000 48.3575 -72.7646 -33.9231
8.8422 12.7655 -2.8956 -175.5430 -1.0013 -167.9910 0.0000 0.0000 0.0000 -5.2833 -16.0239 -67.8037 15.9640 19.6049 78.1244 1.8753 -5.1137 -24.7738 2.1490 -9.1697 -26.3277 0.0000 0.0000 0.0000 17.9521 23.8232 -60.5167 -15.6037 -19.5302 77.0487 -0.7156 -15.9404 -28.5470 -0.0020 0.2914 -0.8007 1.8900 2.8774 38.2084 1.0115 3.4237 2.3739 -1.3182 0.8427 -16.3237 -5.8701 -2.8060 -8.8877 5.4778 -4.0765 -11.4102 2.7569 -2.3857 -1.9013 -0.0000 -0.0000 0.0000 -79.5594 26.9679 -26.9710 26.6664 -37.8592 -9.2936 -0.0000 0.0000 -17.5726 22.9876 -50.8373 -18.2071 -7.1250 0.0000 -0.0000 -9.0586 -22.6182 11.9558 -0.0000 -0.0000 0.0000 84.5039 -22.8570 8.8575 -19.6923 30.2698 -5.3754 0.0000 0.0000 16.1560 -10.7946 -46.6211 7.8898 7.1250 -0.0000 -0.0000 47.4236 -72.2650 -32.7239
8.8361 12.6808 -2.9346 -175.6300 -1.1290 -167.1840 0.0000 0.0000 0.0000 -5.0488 -16.1540 -69.3590 16.3826 19.6833 79.3694 1.9708 -5.1844 -25.4148 2.2993 -9.4634 -27.2560 0.0000 0.0000 0.0000 17.2831 24.0599 -62.0705 -16.0570 -19.6231 78.4013 -0.8631 -15.7852 -29.4178 -0.0013 0.2285 -0.6278 1.9718 2.7521 38.4139 1.0087 3.3053 2.3281 -1.3152 0.7839 -16.4554 -5.8588 -2.6185 -8.7286 5.4612 -3.9487 -12.5547 2.7901 -2.3821 -2.3234 0.0000 0.0000 0.0000 -80.0076 24.0635 -25.9884 23.2151 -34.3232 -7.2592 -0.0000 0.0000 -12.8536 22.7909 -51.1153 -18.1113 -7.1250 0.0000 -0.0000 -9.2225 -22.8299 12.1941 0.0000 0.0000 0.0000 84.7637 -20.8818 12.0650 -19.9521 30.5846 -5.5070 0.0000 0.0000 17.7065 -10.2052 -46.7639 7.4719 7.1250 -0.0000 -0.0000 48.3207 -72.1425 -33.3038
